<mxfile host="Electron" modified="2023-08-13T15:17:38.499Z" agent="Mozilla/5.0 (Windows NT 10.0; Win64; x64) AppleWebKit/537.36 (KHTML, like Gecko) draw.io/21.6.1 Chrome/112.0.5615.204 Electron/24.6.1 Safari/537.36" etag="B2UR8d23N8JystN5ke6v" version="21.6.1" type="device">
  <diagram name="Page-1" id="mNXS3DSHUNHvtuHstR9U">
    <mxGraphModel dx="1037" dy="606" grid="1" gridSize="10" guides="1" tooltips="1" connect="1" arrows="1" fold="1" page="1" pageScale="1" pageWidth="827" pageHeight="1169" math="0" shadow="0">
      <root>
        <mxCell id="0" />
        <mxCell id="1" parent="0" />
        <mxCell id="2xnCWhjKNZ0leVq2F9KZ-1" value="&lt;b&gt;Patient&lt;/b&gt;" style="swimlane;childLayout=stackLayout;horizontal=1;startSize=40;horizontalStack=0;rounded=1;fontSize=14;fontStyle=0;strokeWidth=2;resizeParent=0;resizeLast=1;shadow=0;dashed=0;align=center;arcSize=4;whiteSpace=wrap;html=1;fillColor=#fff2cc;strokeColor=#d6b656;" parent="1" vertex="1">
          <mxGeometry x="120" y="220" width="160" height="170" as="geometry" />
        </mxCell>
        <mxCell id="2xnCWhjKNZ0leVq2F9KZ-2" value="Full Name&lt;br&gt;Phone Number&lt;br&gt;City&lt;br&gt;State&lt;br&gt;Zip&lt;br&gt;Contact Name&lt;br&gt;Contact Number&lt;br&gt;Contact Relationship" style="align=left;strokeColor=none;fillColor=none;spacingLeft=4;fontSize=12;verticalAlign=top;resizable=0;rotatable=0;part=1;html=1;" parent="2xnCWhjKNZ0leVq2F9KZ-1" vertex="1">
          <mxGeometry y="40" width="160" height="130" as="geometry" />
        </mxCell>
        <mxCell id="2xnCWhjKNZ0leVq2F9KZ-7" value="&lt;b&gt;COVID Department&lt;/b&gt;" style="swimlane;childLayout=stackLayout;horizontal=1;startSize=40;horizontalStack=0;rounded=1;fontSize=14;fontStyle=0;strokeWidth=2;resizeParent=0;resizeLast=1;shadow=0;dashed=0;align=center;arcSize=4;whiteSpace=wrap;html=1;fillColor=#f5f5f5;fontColor=#333333;strokeColor=#666666;" parent="1" vertex="1">
          <mxGeometry x="440" y="260" width="160" height="80" as="geometry" />
        </mxCell>
        <mxCell id="2xnCWhjKNZ0leVq2F9KZ-8" value="Floor&lt;br&gt;Room" style="align=left;strokeColor=none;fillColor=none;spacingLeft=4;fontSize=12;verticalAlign=top;resizable=0;rotatable=0;part=1;html=1;" parent="2xnCWhjKNZ0leVq2F9KZ-7" vertex="1">
          <mxGeometry y="40" width="160" height="40" as="geometry" />
        </mxCell>
        <mxCell id="2xnCWhjKNZ0leVq2F9KZ-9" value="&lt;b&gt;Medical Professionals&lt;/b&gt;" style="swimlane;childLayout=stackLayout;horizontal=1;startSize=40;horizontalStack=0;rounded=1;fontSize=14;fontStyle=0;strokeWidth=2;resizeParent=0;resizeLast=1;shadow=0;dashed=0;align=center;arcSize=4;whiteSpace=wrap;html=1;fillColor=#dae8fc;strokeColor=#6c8ebf;" parent="1" vertex="1">
          <mxGeometry x="120" y="470" width="160" height="110" as="geometry" />
        </mxCell>
        <mxCell id="2xnCWhjKNZ0leVq2F9KZ-10" value="Doctor&lt;br&gt;Nurse&lt;br&gt;Shift Start Date/Time&lt;br&gt;Shift End Date/Time" style="align=left;strokeColor=none;fillColor=none;spacingLeft=4;fontSize=12;verticalAlign=top;resizable=0;rotatable=0;part=1;html=1;" parent="2xnCWhjKNZ0leVq2F9KZ-9" vertex="1">
          <mxGeometry y="40" width="160" height="70" as="geometry" />
        </mxCell>
        <mxCell id="2xnCWhjKNZ0leVq2F9KZ-11" value="&lt;b&gt;Symptom&lt;/b&gt;" style="swimlane;childLayout=stackLayout;horizontal=1;startSize=40;horizontalStack=0;rounded=1;fontSize=14;fontStyle=0;strokeWidth=2;resizeParent=0;resizeLast=1;shadow=0;dashed=0;align=center;arcSize=4;whiteSpace=wrap;html=1;fillColor=#d0cee2;strokeColor=#56517e;" parent="1" vertex="1">
          <mxGeometry x="450" y="477" width="160" height="85" as="geometry" />
        </mxCell>
        <mxCell id="2xnCWhjKNZ0leVq2F9KZ-12" value="Symptom Name&lt;br&gt;Symptom Start Date/Time" style="align=left;strokeColor=none;fillColor=none;spacingLeft=4;fontSize=12;verticalAlign=top;resizable=0;rotatable=0;part=1;html=1;" parent="2xnCWhjKNZ0leVq2F9KZ-11" vertex="1">
          <mxGeometry y="40" width="160" height="45" as="geometry" />
        </mxCell>
        <mxCell id="2xnCWhjKNZ0leVq2F9KZ-13" value="&lt;b&gt;Treatments&lt;/b&gt;" style="swimlane;childLayout=stackLayout;horizontal=1;startSize=40;horizontalStack=0;rounded=1;fontSize=14;fontStyle=0;strokeWidth=2;resizeParent=0;resizeLast=1;shadow=0;dashed=0;align=center;arcSize=4;whiteSpace=wrap;html=1;fillColor=#d5e8d4;strokeColor=#82b366;" parent="1" vertex="1">
          <mxGeometry x="120" y="700" width="160" height="80" as="geometry" />
        </mxCell>
        <mxCell id="2xnCWhjKNZ0leVq2F9KZ-14" value="Covid Treatment&lt;br&gt;Treatment Date/Time" style="align=left;strokeColor=none;fillColor=none;spacingLeft=4;fontSize=12;verticalAlign=top;resizable=0;rotatable=0;part=1;html=1;" parent="2xnCWhjKNZ0leVq2F9KZ-13" vertex="1">
          <mxGeometry y="40" width="160" height="40" as="geometry" />
        </mxCell>
        <mxCell id="2xnCWhjKNZ0leVq2F9KZ-15" value="&lt;b&gt;Testing&lt;/b&gt;" style="swimlane;childLayout=stackLayout;horizontal=1;startSize=40;horizontalStack=0;rounded=1;fontSize=14;fontStyle=0;strokeWidth=2;resizeParent=0;resizeLast=1;shadow=0;dashed=0;align=center;arcSize=4;whiteSpace=wrap;html=1;fillColor=#fad9d5;strokeColor=#ae4132;" parent="1" vertex="1">
          <mxGeometry x="440" y="700" width="160" height="80" as="geometry" />
        </mxCell>
        <mxCell id="2xnCWhjKNZ0leVq2F9KZ-16" value="Covid Testing Method&lt;br&gt;Covid Test Date" style="align=left;strokeColor=none;fillColor=none;spacingLeft=4;fontSize=12;verticalAlign=top;resizable=0;rotatable=0;part=1;html=1;" parent="2xnCWhjKNZ0leVq2F9KZ-15" vertex="1">
          <mxGeometry y="40" width="160" height="40" as="geometry" />
        </mxCell>
        <mxCell id="98V4NqpjXAjCseQ5XePn-2" value="" style="endArrow=classic;html=1;rounded=0;exitX=1.008;exitY=0.372;exitDx=0;exitDy=0;exitPerimeter=0;entryX=0;entryY=0.25;entryDx=0;entryDy=0;" parent="1" source="2xnCWhjKNZ0leVq2F9KZ-2" target="2xnCWhjKNZ0leVq2F9KZ-8" edge="1">
          <mxGeometry width="50" height="50" relative="1" as="geometry">
            <mxPoint x="320" y="160" as="sourcePoint" />
            <mxPoint x="370" y="110" as="targetPoint" />
          </mxGeometry>
        </mxCell>
        <mxCell id="98V4NqpjXAjCseQ5XePn-3" value="admissions into" style="edgeLabel;html=1;align=center;verticalAlign=middle;resizable=0;points=[];" parent="98V4NqpjXAjCseQ5XePn-2" vertex="1" connectable="0">
          <mxGeometry x="-0.0026" y="-1" relative="1" as="geometry">
            <mxPoint as="offset" />
          </mxGeometry>
        </mxCell>
        <mxCell id="98V4NqpjXAjCseQ5XePn-4" value="" style="endArrow=classic;html=1;rounded=0;exitX=1;exitY=0.25;exitDx=0;exitDy=0;entryX=0;entryY=0.25;entryDx=0;entryDy=0;" parent="1" source="2xnCWhjKNZ0leVq2F9KZ-10" target="2xnCWhjKNZ0leVq2F9KZ-12" edge="1">
          <mxGeometry width="50" height="50" relative="1" as="geometry">
            <mxPoint x="291" y="376.5" as="sourcePoint" />
            <mxPoint x="450" y="378.5" as="targetPoint" />
          </mxGeometry>
        </mxCell>
        <mxCell id="98V4NqpjXAjCseQ5XePn-5" value="checks for" style="edgeLabel;html=1;align=center;verticalAlign=middle;resizable=0;points=[];" parent="98V4NqpjXAjCseQ5XePn-4" vertex="1" connectable="0">
          <mxGeometry x="-0.0026" y="-1" relative="1" as="geometry">
            <mxPoint as="offset" />
          </mxGeometry>
        </mxCell>
        <mxCell id="98V4NqpjXAjCseQ5XePn-6" value="" style="endArrow=classic;html=1;rounded=0;exitX=1;exitY=1;exitDx=0;exitDy=0;entryX=0;entryY=0;entryDx=0;entryDy=0;" parent="1" source="2xnCWhjKNZ0leVq2F9KZ-10" target="2xnCWhjKNZ0leVq2F9KZ-16" edge="1">
          <mxGeometry width="50" height="50" relative="1" as="geometry">
            <mxPoint x="280" y="420" as="sourcePoint" />
            <mxPoint x="439" y="422" as="targetPoint" />
          </mxGeometry>
        </mxCell>
        <mxCell id="98V4NqpjXAjCseQ5XePn-7" value="performs" style="edgeLabel;html=1;align=center;verticalAlign=middle;resizable=0;points=[];" parent="98V4NqpjXAjCseQ5XePn-6" vertex="1" connectable="0">
          <mxGeometry x="-0.0026" y="-1" relative="1" as="geometry">
            <mxPoint as="offset" />
          </mxGeometry>
        </mxCell>
        <mxCell id="98V4NqpjXAjCseQ5XePn-8" value="" style="endArrow=classic;html=1;rounded=0;exitX=0.5;exitY=1;exitDx=0;exitDy=0;entryX=0.5;entryY=0;entryDx=0;entryDy=0;" parent="1" source="2xnCWhjKNZ0leVq2F9KZ-10" target="2xnCWhjKNZ0leVq2F9KZ-13" edge="1">
          <mxGeometry width="50" height="50" relative="1" as="geometry">
            <mxPoint x="110" y="500" as="sourcePoint" />
            <mxPoint x="269" y="502" as="targetPoint" />
          </mxGeometry>
        </mxCell>
        <mxCell id="98V4NqpjXAjCseQ5XePn-9" value="administers" style="edgeLabel;html=1;align=center;verticalAlign=middle;resizable=0;points=[];" parent="98V4NqpjXAjCseQ5XePn-8" vertex="1" connectable="0">
          <mxGeometry x="-0.0026" y="-1" relative="1" as="geometry">
            <mxPoint as="offset" />
          </mxGeometry>
        </mxCell>
        <mxCell id="qhVtNer88Igqvl7IYoof-2" value="" style="endArrow=none;html=1;rounded=0;fillColor=#fff2cc;strokeColor=#d6b656;" parent="1" edge="1">
          <mxGeometry width="50" height="50" relative="1" as="geometry">
            <mxPoint x="314" y="140" as="sourcePoint" />
            <mxPoint x="514" y="140" as="targetPoint" />
          </mxGeometry>
        </mxCell>
        <mxCell id="qhVtNer88Igqvl7IYoof-3" value="&lt;font style=&quot;font-size: 20.5px;&quot;&gt;&lt;b style=&quot;font-size: 20.5px;&quot;&gt;Conceptual Model&lt;/b&gt;&lt;/font&gt;" style="edgeLabel;html=1;align=center;verticalAlign=middle;resizable=0;points=[];fontColor=#333333;fontSize=20.5;" parent="qhVtNer88Igqvl7IYoof-2" vertex="1" connectable="0">
          <mxGeometry x="0.0356" y="3" relative="1" as="geometry">
            <mxPoint x="-4" y="-27" as="offset" />
          </mxGeometry>
        </mxCell>
        <mxCell id="n6YXhgBfJseSlnIA2djT-1" value="" style="endArrow=classic;html=1;rounded=0;exitX=1.008;exitY=0.372;exitDx=0;exitDy=0;exitPerimeter=0;entryX=0.5;entryY=1;entryDx=0;entryDy=0;" edge="1" parent="1" target="2xnCWhjKNZ0leVq2F9KZ-2">
          <mxGeometry width="50" height="50" relative="1" as="geometry">
            <mxPoint x="200" y="470" as="sourcePoint" />
            <mxPoint x="200" y="400" as="targetPoint" />
          </mxGeometry>
        </mxCell>
        <mxCell id="n6YXhgBfJseSlnIA2djT-2" value="treat" style="edgeLabel;html=1;align=center;verticalAlign=middle;resizable=0;points=[];" vertex="1" connectable="0" parent="n6YXhgBfJseSlnIA2djT-1">
          <mxGeometry x="-0.0026" y="-1" relative="1" as="geometry">
            <mxPoint as="offset" />
          </mxGeometry>
        </mxCell>
      </root>
    </mxGraphModel>
  </diagram>
</mxfile>
